REM DIRINDEX 1\2,1\3\5,1\3\6,1\4\7,1\4\8
REM DIRNAME cjc139,folder01,folder02,folder03,folder04,folder05,folder06,folder07
TITLE ""
FILE "EG_E1.5_07.mp3" MP3
  TRACK 01 AUDIO
    TITLE "0:"
    INDEX 01 00:00:00
  TRACK 02 AUDIO
    TITLE "2:cjc139_0197"
    INDEX 01 00:00:17
  TRACK 03 AUDIO
    TITLE "0:"
    INDEX 01 00:03:00
  TRACK 04 AUDIO
    TITLE "2:cjc139_0198"
    INDEX 01 00:04:23
  TRACK 05 AUDIO
    TITLE "0:"
    INDEX 01 00:06:69
  TRACK 06 AUDIO
    TITLE "2:cjc139_0199"
    INDEX 01 00:08:15
  TRACK 07 AUDIO
    TITLE "0:"
    INDEX 01 00:10:45
  TRACK 08 AUDIO
    TITLE "2:cjc139_0200"
    INDEX 01 00:11:68
  TRACK 09 AUDIO
    TITLE "0:"
    INDEX 01 00:14:41
  TRACK 10 AUDIO
    TITLE "2:cjc139_0201"
    INDEX 01 00:15:62
  TRACK 11 AUDIO
    TITLE "0:"
    INDEX 01 00:18:41
  TRACK 12 AUDIO
    TITLE "2:cjc139_0202"
    INDEX 01 00:19:62
  TRACK 13 AUDIO
    TITLE "0:"
    INDEX 01 00:21:68
  TRACK 14 AUDIO
    TITLE "2:cjc139_0203"
    INDEX 01 00:23:14
  TRACK 15 AUDIO
    TITLE "0:"
    INDEX 01 00:25:15
  TRACK 16 AUDIO
    TITLE "2:cjc139_0204"
    INDEX 01 00:26:36
  TRACK 17 AUDIO
    TITLE "0:"
    INDEX 01 00:29:62
  TRACK 18 AUDIO
    TITLE "2:cjc139_0205"
    INDEX 01 00:31:08
  TRACK 19 AUDIO
    TITLE "0:"
    INDEX 01 00:33:38
  TRACK 20 AUDIO
    TITLE "2:cjc139_0206"
    INDEX 01 00:34:61
  TRACK 21 AUDIO
    TITLE "0:"
    INDEX 01 00:37:61
  TRACK 22 AUDIO
    TITLE "2:cjc139_0207"
    INDEX 01 00:39:07
  TRACK 23 AUDIO
    TITLE "0:"
    INDEX 01 00:40:68
  TRACK 24 AUDIO
    TITLE "2:cjc139_0208"
    INDEX 01 00:42:19
  TRACK 25 AUDIO
    TITLE "0:"
    INDEX 01 00:45:16
  TRACK 26 AUDIO
    TITLE "2:cjc139_0209"
    INDEX 01 00:46:37
  TRACK 27 AUDIO
    TITLE "0:"
    INDEX 01 00:48:71
  TRACK 28 AUDIO
    TITLE "2:cjc139_0210"
    INDEX 01 00:50:17
  TRACK 29 AUDIO
    TITLE "0:"
    INDEX 01 00:52:18
  TRACK 30 AUDIO
    TITLE "2:cjc139_0211"
    INDEX 01 00:53:43
  TRACK 31 AUDIO
    TITLE "0:"
    INDEX 01 00:55:38
  TRACK 32 AUDIO
    TITLE "2:cjc139_0212"
    INDEX 01 00:56:63
  TRACK 33 AUDIO
    TITLE "0:"
    INDEX 01 00:59:47
  TRACK 34 AUDIO
    TITLE "2:cjc139_0213"
    INDEX 01 01:00:68
  TRACK 35 AUDIO
    TITLE "0:"
    INDEX 01 01:03:41
  TRACK 36 AUDIO
    TITLE "2:cjc139_0214"
    INDEX 01 01:04:64
  TRACK 37 AUDIO
    TITLE "0:"
    INDEX 01 01:07:41
  TRACK 38 AUDIO
    TITLE "2:cjc139_0215"
    INDEX 01 01:08:62
  TRACK 39 AUDIO
    TITLE "0:"
    INDEX 01 01:11:19
  TRACK 40 AUDIO
    TITLE "2:cjc139_0216"
    INDEX 01 01:12:42
  TRACK 41 AUDIO
    TITLE "0:"
    INDEX 01 01:14:74
  TRACK 42 AUDIO
    TITLE "2:cjc139_0217"
    INDEX 01 01:16:20
  TRACK 43 AUDIO
    TITLE "0:"
    INDEX 01 01:18:74
  TRACK 44 AUDIO
    TITLE "2:cjc139_0218"
    INDEX 01 01:20:22
  TRACK 45 AUDIO
    TITLE "0:"
    INDEX 01 01:22:52
  TRACK 46 AUDIO
    TITLE "2:cjc139_0219"
    INDEX 01 01:24:02
  TRACK 47 AUDIO
    TITLE "0:"
    INDEX 01 01:26:64
  TRACK 48 AUDIO
    TITLE "2:cjc139_0220"
    INDEX 01 01:28:12
  TRACK 49 AUDIO
    TITLE "0:"
    INDEX 01 01:30:07
  TRACK 50 AUDIO
    TITLE "2:cjc139_0221"
    INDEX 01 01:31:30
  TRACK 51 AUDIO
    TITLE "0:"
    INDEX 01 01:33:50
  TRACK 52 AUDIO
    TITLE "2:cjc139_0222"
    INDEX 01 01:34:71
  TRACK 53 AUDIO
    TITLE "0:"
    INDEX 01 01:36:74
  TRACK 54 AUDIO
    TITLE "2:cjc139_0223"
    INDEX 01 01:38:20
  TRACK 55 AUDIO
    TITLE "0:"
    INDEX 01 01:40:70
  TRACK 56 AUDIO
    TITLE "2:cjc139_0224"
    INDEX 01 01:42:16
  TRACK 57 AUDIO
    TITLE "0:"
    INDEX 01 01:44:28
  TRACK 58 AUDIO
    TITLE "2:cjc139_0225"
    INDEX 01 01:45:53
  TRACK 59 AUDIO
    TITLE "0:"
    INDEX 01 01:48:32
  TRACK 60 AUDIO
    TITLE "2:cjc139_0226"
    INDEX 01 01:49:55
  TRACK 61 AUDIO
    TITLE "0:"
    INDEX 01 01:52:59
  TRACK 62 AUDIO
    TITLE "2:cjc139_0227"
    INDEX 01 01:54:07
  TRACK 63 AUDIO
    TITLE "0:"
    INDEX 01 01:56:14
  TRACK 64 AUDIO
    TITLE "2:cjc139_0228"
    INDEX 01 01:57:37
  TRACK 65 AUDIO
    TITLE "0:"
    INDEX 01 01:59:24
  TRACK 66 AUDIO
    TITLE "2:cjc139_0229"
    INDEX 01 02:00:47
  TRACK 67 AUDIO
    TITLE "0:"
    INDEX 01 02:03:14
  TRACK 68 AUDIO
    TITLE "2:cjc139_0230"
    INDEX 01 02:04:37
  TRACK 69 AUDIO
    TITLE "0:"
    INDEX 01 02:06:59
  TRACK 70 AUDIO
    TITLE "2:cjc139_0231"
    INDEX 01 02:08:07
  TRACK 71 AUDIO
    TITLE "0:"
    INDEX 01 02:10:28
  TRACK 72 AUDIO
    TITLE "2:cjc139_0232"
    INDEX 01 02:11:51
  TRACK 73 AUDIO
    TITLE "0:"
    INDEX 01 02:14:55
  TRACK 74 AUDIO
    TITLE "2:cjc139_0233"
    INDEX 01 02:16:03
  TRACK 75 AUDIO
    TITLE "0:"
    INDEX 01 02:19:05
  TRACK 76 AUDIO
    TITLE "2:cjc139_0234"
    INDEX 01 02:20:26
  TRACK 77 AUDIO
    TITLE "0:"
    INDEX 01 02:22:37
  TRACK 78 AUDIO
    TITLE "2:cjc139_0235"
    INDEX 01 02:23:60
  TRACK 79 AUDIO
    TITLE "0:"
    INDEX 01 02:26:15
  TRACK 80 AUDIO
    TITLE "2:cjc139_0236"
    INDEX 01 02:27:36
  TRACK 81 AUDIO
    TITLE "0:"
    INDEX 01 02:29:53
  TRACK 82 AUDIO
    TITLE "2:cjc139_0237"
    INDEX 01 02:31:01
  TRACK 83 AUDIO
    TITLE "0:"
    INDEX 01 02:33:64
  TRACK 84 AUDIO
    TITLE "2:cjc139_0238"
    INDEX 01 02:35:10
  TRACK 85 AUDIO
    TITLE "0:"
    INDEX 01 02:37:54
  TRACK 86 AUDIO
    TITLE "2:cjc139_0239"
    INDEX 01 02:39:02
  TRACK 87 AUDIO
    TITLE "0:"
    INDEX 01 02:41:58
  TRACK 88 AUDIO
    TITLE "2:cjc139_0240"
    INDEX 01 02:43:06
  TRACK 89 AUDIO
    TITLE "0:"
    INDEX 01 02:46:16
  TRACK 90 AUDIO
    TITLE "2:cjc139_0241"
    INDEX 01 02:47:37
  TRACK 91 AUDIO
    TITLE "0:"
    INDEX 01 02:50:19
  TRACK 92 AUDIO
    TITLE "2:cjc139_0242"
    INDEX 01 02:51:40
  TRACK 93 AUDIO
    TITLE "0:"
    INDEX 01 02:54:02
  TRACK 94 AUDIO
    TITLE "2:cjc139_0243"
    INDEX 01 02:55:27
  TRACK 95 AUDIO
    TITLE "0:"
    INDEX 01 02:58:39
  TRACK 96 AUDIO
    TITLE "2:cjc139_0244"
    INDEX 01 02:59:62
  TRACK 97 AUDIO
    TITLE "0:"
    INDEX 01 03:03:16
  TRACK 98 AUDIO
    TITLE "2:cjc139_0245"
    INDEX 01 03:04:37
  TRACK 99 AUDIO
    TITLE "0:"
    INDEX 01 03:07:45
